<?xml version="1.0" encoding="UTF-8"?>
<svg width="100px" height="27px" viewBox="0 0 100 27" version="1.1" xmlns="http://www.w3.org/2000/svg" xmlns:xlink="http://www.w3.org/1999/xlink">
    <!-- Generator: Sketch 52.6 (67491) - http://www.bohemiancoding.com/sketch -->
    <title>Group 28</title>
    <desc>Created with Sketch.</desc>
    <defs>
        <polygon id="path-1" points="0 0.21935761 30.9341378 0.21935761 30.9341378 23 0 23"></polygon>
        <polygon id="path-3" points="0.140364378 0.152389891 7.98222222 0.152389891 7.98222222 7.9621409 0.140364378 7.9621409"></polygon>
    </defs>
    <g id="06-Symbols" stroke="none" stroke-width="1" fill="none" fill-rule="evenodd">
        <g id="Atoms-/-Logo-/-Brand-/-Color" transform="translate(0.000000, -17.000000)">
            <g id="Group-28" transform="translate(0.000000, 17.000000)">
                <g id="Group-27">
                    <path d="M55.1808574,13.1540104 C55.1808574,13.0667242 55.1842871,12.979218 55.1804287,12.8921516 C55.1628514,12.4939767 55.0698203,12.4183433 54.6884788,12.4957356 C54.6286731,12.5080481 54.5712253,12.5377298 54.5154925,12.5656526 C54.0042504,12.8220148 53.6098331,13.2347008 53.2308494,13.6480463 C52.3674184,14.5892869 51.7397804,15.6974048 51.21632,16.8646663 C50.9346546,17.49216 50.636698,18.122512 50.6712095,18.8480654 C50.6909304,19.2649288 50.9417283,19.4603885 51.3228555,19.3027455 C51.452756,19.2488787 51.5832996,19.1763233 51.7039827,19.0833206 C52.2638839,18.652166 52.6949563,18.1031639 53.1230277,17.5444878 C53.7107953,16.7771602 54.1935279,15.9403553 54.5967339,15.0670528 C54.8732547,14.4679216 55.2010069,13.8595561 55.1808574,13.1540104 M30.0067417,13.0519932 C29.5538048,13.7731493 29.1876826,14.537179 28.718669,15.240526 C28.2777361,15.9020988 27.8331591,16.5601537 27.3294196,17.1731364 C27.2648981,17.2520678 27.177226,17.4169663 27.0505408,17.3063744 C26.9167819,17.1896263 27.0841949,17.1014605 27.1433575,17.0212099 C28.0470877,15.7950247 28.808699,14.483532 29.459702,13.0979449 C29.6071798,12.7839782 29.5512325,12.6102851 29.3806041,12.3495256 C29.1900406,12.0586447 29.2138342,11.6437601 29.3520946,11.374206 C29.6329026,10.8276225 30.0181026,10.3331468 30.6011543,10.0611743 C30.7136919,10.0084067 30.825372,9.9980731 30.9415537,10.0002717 C31.0534481,10.0024704 31.0993206,10.0807422 31.0678101,10.1783621 C30.8579543,10.8265231 30.6751076,11.486337 30.3919417,12.1054759 C30.3257053,12.2503667 30.3434969,12.4209817 30.2215276,12.5518011 C30.1612933,12.6160016 30.227744,12.703068 30.3242048,12.7758432 C30.7848585,13.1234492 31.2386528,13.482928 31.6755129,13.8615349 C32.3713165,14.4644038 32.4047563,15.4408228 32.0536391,16.1892421 C31.7020932,16.9381011 31.2862401,17.6522215 30.8551677,18.3573275 C30.7252672,18.5699366 30.573931,18.7924396 30.5726448,19.0659513 C30.571573,19.2497581 30.5912939,19.3676056 30.8285874,19.2458006 C31.8748651,18.7080116 32.6934955,17.9668478 33.1715122,16.8297078 C33.4634667,16.1349355 33.8953966,15.5030445 34.242441,14.8309182 C34.7050239,13.9356293 35.1864703,13.0515535 35.6677024,12.1672578 C35.7502299,12.0153314 35.8291134,11.9790537 35.9832362,11.9711386 C36.6265223,11.9374993 37.2055013,12.7723254 36.8916823,13.4583031 C36.4432469,14.4384598 35.8812022,15.3504584 35.3819641,16.299834 C35.0019087,17.0223093 34.6019181,17.7337913 34.2162894,18.4534083 C34.1663442,18.5461912 34.1674159,18.6701949 34.1118974,18.7579209 C34.0229392,18.8992939 33.973637,19.0677102 34.0788864,19.175224 C34.1843502,19.2829577 34.3800583,19.2339279 34.5041712,19.1690678 C35.7144322,18.5371768 36.7171955,17.6898184 37.4078545,16.4486824 C38.0702184,15.2583351 38.6770638,14.0363273 39.3696521,12.8629096 C39.4798317,12.6762445 39.553785,12.4592381 39.6714671,12.2730127 C39.8997576,11.9117751 40.1972854,11.8682419 40.531254,12.1265829 C40.7284627,12.2791689 40.8682236,12.4733094 40.9856914,12.6958125 C41.0697195,12.8545548 41.1023018,12.9948284 41.0011251,13.1493933 C40.9471071,13.2318425 40.9329595,13.3303419 41.0062697,13.3855279 C41.0973715,13.4539058 41.1651084,13.3820101 41.2444206,13.3068164 C41.7790276,12.8009078 42.364866,12.3653559 43.01887,12.0342397 C43.3963531,11.8429575 43.8029888,11.7978852 44.2173414,11.8400992 C44.4677106,11.8658234 44.8917093,12.339192 44.901141,12.6472224 C44.9103583,12.9425006 45.0006028,13.2569071 44.8098248,13.5359153 C44.7911757,13.5631786 44.8074669,13.6155063 44.8074669,13.6805863 C45.0747704,13.5849452 45.2520438,13.3941026 45.4295316,13.2267856 C45.9384157,12.7472608 46.4978882,12.3433694 47.1081633,12.0221472 C47.4880043,11.8218505 47.9190767,11.7741398 48.3390026,11.8554897 C48.6498206,11.9157327 48.9900056,12.3704128 49.0035101,12.8565335 C49.0195869,13.4358769 48.8300951,13.9672898 48.5664356,14.4720991 C47.945657,15.6606874 47.3336671,16.8543327 46.6948825,18.0325874 C46.5384017,18.3219293 46.4024992,18.618087 46.2573793,18.9111665 C46.1300511,19.1679685 46.2297272,19.2038064 46.4530875,19.2152394 C46.6839503,19.2271121 46.8674401,19.1075057 47.040212,18.9999919 C47.5473813,18.6844861 48.0226113,18.3234683 48.4586139,17.9041864 C48.7244169,17.6482639 49.0225879,17.4275198 49.1934306,17.0878289 C49.2931067,16.8897309 49.3621298,16.6758025 49.4532316,16.4728675 C50.0274947,15.1965531 50.8358359,14.0961305 51.8195213,13.1212506 C52.3588441,12.5867596 52.9654752,12.1470303 53.6580634,11.8829728 C54.098782,11.7149962 54.6044507,11.6316675 55.0713208,11.8748378 C55.4657382,12.0797517 55.5722737,12.4792458 55.6635899,12.8804988 C55.6755939,12.932167 55.6845969,12.9847146 55.697244,13.0363828 C55.6989588,13.0436384 55.7133208,13.0478158 55.7441882,13.0673838 C56.1038797,12.5663122 56.5525294,12.1709955 57.1561594,12.0104943 C57.4577601,11.9302437 57.776938,11.9480528 58.0774669,11.9863092 C58.3059717,12.0155512 58.1160512,12.2105712 58.0770382,12.2868642 C57.8172372,12.794092 57.5319277,13.2874683 57.2614089,13.7891994 C56.4080526,15.3726647 55.55684,16.9574492 54.7069135,18.5428932 C54.6721876,18.6075334 54.6466791,18.6811881 54.6342464,18.7537434 C54.6095953,18.8948966 54.4160307,19.0520998 54.5613649,19.1640109 C54.714416,19.2820782 54.9369188,19.2271121 55.108619,19.1294922 C55.7218951,18.7812265 56.2865121,18.3700796 56.8168319,17.8903349 C57.6556118,17.1318019 58.0881848,16.1136086 58.616361,15.1532398 C59.1781914,14.1317486 59.7151563,13.0953066 60.2964932,12.0859079 C60.4388264,11.8385602 60.7440711,11.9342013 60.949211,12.051609 C61.6100744,12.430216 61.7532651,12.9504158 61.3712804,13.6667348 C60.5599383,15.1890777 59.7668164,16.7219741 58.9091731,18.218373 C58.7280412,18.5343185 58.6369393,18.9063295 58.5220439,19.2585527 C58.460952,19.4463171 58.6903143,19.639798 58.9106736,19.574938 C59.2527877,19.4742399 59.5968311,19.358811 59.8892144,19.1468615 C60.98458,18.3533699 61.8190727,17.331439 62.4981565,16.1424109 C62.9185111,15.406304 63.2164677,14.6304016 63.4606206,13.8318532 C63.5643695,13.4928219 63.6183875,13.1203711 63.6391802,12.7457218 C63.6644743,12.2919211 63.6771214,11.8495534 63.6374653,11.3942137 C63.6016677,10.9846058 63.4979187,10.6156729 63.3022106,10.2718046 C63.252051,10.1836389 63.2093939,10.1102041 63.2773451,10.0508406 C63.3553712,9.98268257 63.425466,10.0211589 63.5131381,10.1060266 C64.0363842,10.6125948 64.4518085,11.2143644 64.6946753,11.8884694 C64.9615501,12.6289736 65.0912362,13.3982801 64.927896,14.2324466 C64.7326165,15.2304123 64.3427007,16.1109702 63.7525752,16.8925891 C63.0349071,17.8426243 62.1903395,18.6530454 61.1299142,19.2262326 C60.5072064,19.5628454 59.8585613,19.8035972 59.1878375,19.943651 C58.5340479,20.0801869 57.860323,19.9926808 57.3919524,19.412458 C57.1538015,19.1176195 56.9876746,18.7574811 57.1810249,18.345015 C57.2273261,18.2458561 57.2221815,18.1341648 57.1810249,17.9890542 C56.8742797,18.2163942 56.6159792,18.4773736 56.3478182,18.7148274 C55.8481515,19.1576348 55.3146163,19.5608666 54.7118437,19.7978807 C54.3600834,19.9361756 53.9266531,20.1459265 53.5071559,19.8150302 C53.1826191,19.5591077 53.0158491,19.2479992 52.9899119,18.8414694 C52.9817663,18.7157069 53.0239947,18.5831285 52.9448969,18.4443939 C52.7474738,18.6314987 52.5601256,18.8036527 52.378565,18.9824027 C51.8698953,19.4821551 51.2690519,19.8447119 50.5831087,19.9535449 C49.8532222,20.0691937 49.035878,19.5127163 49.0245171,18.6288603 C49.0219448,18.4430747 49.026875,18.2568493 49.0210874,18.0710637 C49.0193725,18.0211544 49.0050106,17.9556347 48.9719996,17.9261729 C48.9106934,17.8716464 48.8819695,17.9567341 48.8489585,17.9868555 C48.5194914,18.2874105 48.2352537,18.6396337 47.8659161,18.8940171 C47.3220918,19.2688863 46.8260691,19.7270843 46.1441987,19.8539462 C45.8668204,19.9053945 45.6198809,20.0274194 45.3219243,19.8768121 C44.9116445,19.6694798 44.5907517,18.9546997 44.725368,18.4171307 C44.934152,17.5851628 45.3127069,16.8497155 45.7180565,16.1265806 C46.2462327,15.1842407 46.7431129,14.2249712 47.2652871,13.279773 C47.3544597,13.1188321 47.3345245,12.9246916 47.4650681,12.7804604 C47.5135128,12.7268134 47.5102975,12.5959939 47.4429893,12.5368503 C47.3358107,12.4425284 47.1928344,12.4638553 47.0790107,12.517942 C46.825426,12.6384278 46.5606948,12.7516581 46.3377633,12.9198546 C45.6556785,13.4345577 45.008534,13.9870776 44.4897894,14.6899849 C43.9438215,15.4302692 43.560122,16.2622371 43.1262629,17.066502 C42.6788994,17.8960514 42.2450403,18.7339556 41.7961762,19.5628454 C41.6637034,19.8075548 41.2767886,19.8255837 40.9709008,19.6226486 C40.4037115,19.2460204 40.3121809,18.804752 40.6390757,18.1165757 C41.1878303,16.9607471 41.8351892,15.8605444 42.430888,14.7310996 C42.7438496,14.1376849 43.0983965,13.5664765 43.3391197,12.9330464 C43.3935664,12.7903543 43.431722,12.631612 43.3521955,12.5370702 C43.2634516,12.4319749 43.0836058,12.4603374 42.9622796,12.5267366 C42.4613267,12.8020071 41.9721635,13.086512 41.5528807,13.5002973 C41.2075512,13.8408676 40.838428,14.1469192 40.5344694,14.5378386 C40.1297629,15.058698 39.8208741,15.6325447 39.506412,16.2070511 C38.9915259,17.1487314 38.4787834,18.091731 37.9651834,19.0340709 C37.9347447,19.0901364 37.9045203,19.1462019 37.8742959,19.2022674 C37.7542558,19.4241108 37.6783734,19.7895259 37.4359353,19.7822703 C37.0586666,19.7717168 36.6837557,19.6061587 36.4850466,19.2031468 C36.3667214,18.9630546 36.2749764,18.7328563 36.4462479,18.4764941 C36.4771153,18.4301027 36.4848322,18.3430363 36.4209537,18.3001627 C36.3645778,18.2623459 36.3236355,18.3219293 36.2841938,18.3535898 C36.02868,18.5585036 35.769522,18.7592401 35.5212963,18.9731684 C35.1354533,19.3060435 34.6893759,19.5452562 34.2602326,19.8042568 C33.7464183,20.1144858 33.110849,19.998837 32.7543729,19.6127547 C32.569597,19.412458 32.4911422,19.1824795 32.506576,18.9083083 C32.5127923,18.7946383 32.5614514,18.6367754 32.4414114,18.5780716 C32.2986494,18.5083745 32.2634948,18.6886635 32.1828965,18.7631976 C31.6105626,19.292192 30.9923563,19.7411556 30.2343891,19.9504668 C29.818536,20.065456 29.3330168,19.7620428 29.1692479,19.3475979 C28.8725775,18.5961005 29.2074035,17.9639896 29.5135056,17.3439712 C29.9087804,16.5430043 30.3615029,15.7717191 30.7947189,14.9907598 C31.1730595,14.3089595 30.938767,13.5622991 30.2108098,13.1568687 C30.1396432,13.1170732 30.0659043,13.0823345 30.0067417,13.0519932" id="Fill-1" fill="#FFFFFF"></path>
                    <g id="Group-5" transform="translate(0.000000, 4.000000)">
                        <mask id="mask-2" fill="white">
                            <use xlink:href="#path-1"></use>
                        </mask>
                        <g id="Clip-4"></g>
                        <path d="M27.7207883,5.13081346 C27.7870876,4.85680385 27.6689708,4.46978462 27.5268686,4.11129423 C27.1931095,3.270025 26.5079416,2.75230385 25.7200438,2.32591923 C25.376781,2.14015 25.1708686,2.24121731 24.9604307,2.48492885 C24.8185547,2.64880385 24.6698905,2.80825577 24.5404599,2.98119808 C23.9424088,3.78089038 23.4262701,4.62901538 22.9526715,5.50478462 C22.1414672,7.00442885 21.3169124,8.49699615 20.4837591,9.98469808 C20.3362263,10.2483135 20.46,10.2772846 20.6661387,10.2531788 C21.3732555,10.1702462 22.0837664,10.1319865 22.7899781,10.0191981 C23.5097664,9.90375577 24.1643869,9.64434231 24.8158394,9.35794808 C25.5100584,9.05275577 26.0730365,8.57550577 26.5572701,8.01178462 C27.2401752,7.21695769 27.7119635,6.33234231 27.7207883,5.13081346 M7.15330657,14.5709865 C7.15330657,14.9009481 7.15443796,15.2309096 7.15285401,15.5608712 C7.15217518,15.7174481 7.20150365,15.8258135 7.38750365,15.7853423 C7.80611679,15.6935635 8.22970803,15.6159385 8.63949635,15.494525 C9.17509489,15.3359577 9.67494161,15.0864962 10.184292,14.8600346 C11.2480219,14.3872077 12.0804964,13.6136115 12.9045985,12.8470923 C13.3327153,12.4487942 13.6739416,11.9492077 14.0192409,11.4648808 C14.5609489,10.7049962 15.020292,9.90397692 15.3990803,9.06182308 C15.7679124,8.24222692 16.0344672,7.39410192 16.1242993,6.48582308 C16.1815474,5.90684231 16.1374234,5.35992885 15.9355839,4.83380385 C15.7346496,4.310775 15.3370803,3.97285192 14.7367664,3.90915962 C14.1846496,3.85055385 13.6843504,4.0204 13.2014745,4.24265962 C11.9085255,4.83800577 10.9287445,5.81749615 10.0707007,6.88566923 C9.05765693,8.14668846 8.28514599,9.54968846 7.78575182,11.1008615 C7.41918248,12.2391404 7.13724088,13.3747654 7.15330657,14.5709865 M24.4454234,1.83606346 C24.1431168,1.80443846 23.9062044,1.71531346 23.6760803,1.63680385 C22.7981241,1.33736154 21.8887153,1.18056346 20.9822482,1.03106346 C20.0934307,0.884438462 19.1883212,0.816986538 18.2872847,0.759265385 C17.3572847,0.699553846 16.4295474,0.780717308 15.5,0.856794231 C14.8080438,0.913188462 14.121292,1.01248654 13.4582993,1.16994808 C12.6946131,1.35129423 11.9435985,1.61181346 11.2183796,1.93226538 C9.51835766,2.683525 7.98057664,3.65505385 6.72043796,5.01470769 C5.6829562,6.13374615 4.805,7.34345769 4.26510219,8.78449615 C3.97343066,9.5634 3.76457664,10.3586692 3.66886131,11.1643327 C3.55572263,12.1170635 3.55345985,13.0972173 3.93089051,14.0145635 C4.18386861,14.6295923 4.5379927,15.1906596 5.18152555,15.5051404 C5.27543066,15.5509192 5.38947445,15.5785635 5.47410219,15.5241596 C5.58746715,15.4511788 5.49763504,15.3529865 5.46754015,15.2625346 C5.44016058,15.1807077 5.42251095,15.0931308 5.41821168,15.0068808 C5.34783942,13.5660635 5.42567883,12.1509 5.91986861,10.7629385 C6.25928467,9.80976538 6.66794161,8.89772692 7.16575182,8.019525 C7.82625547,6.85404423 8.75919708,5.90374615 9.7699781,5.04036154 C10.4893139,4.42599615 11.3152263,3.93039038 12.2004234,3.55531346 C12.674927,3.35428462 13.1781679,3.20213077 13.6886496,3.15635192 C14.5448832,3.07961154 15.318073,3.32265962 15.9276642,3.94432308 C16.3455985,4.37070769 16.5718759,4.88820769 16.6087591,5.48023654 C16.667365,6.42942885 16.5503796,7.34434231 16.2308759,8.25615962 C15.9231387,9.13436154 15.5276058,9.96899615 15.0531022,10.7569673 C14.3414599,11.9390346 13.4422336,12.9952654 12.389365,13.9055346 C11.5277007,14.6503808 10.5470146,15.2278135 9.48056934,15.6619385 C8.92189051,15.8892846 8.34443066,16.0639962 7.75588321,16.178775 C7.29224088,16.2690058 7.18385401,16.3408808 7.30989051,16.7778808 C7.49543796,17.4203327 7.67080292,18.0658808 7.95772263,18.6773712 C8.15639416,19.1013231 8.13489781,19.0811981 8.60985401,18.9976019 C9.44255474,18.8511981 10.1994526,18.5192462 10.955219,18.1713712 C12.100635,17.6441404 13.0951241,16.9114577 14.0083796,16.0651019 C14.9209562,15.2198519 15.655,14.2304096 16.3331533,13.2069096 C17.2194818,11.8695923 18.0320438,10.4878231 18.8208467,9.09123654 C19.4580438,7.96401538 20.1061022,6.83922692 20.8292847,5.75844808 C21.3782336,4.93774615 21.9692701,4.15397692 22.6385985,3.42173654 C23.1685401,2.84209231 23.8009854,2.37899615 24.4454234,1.83606346 M16.940708,0.228938462 C17.484,0.228938462 17.913927,0.203948077 18.3393285,0.234688462 C19.0272117,0.284005769 19.7126058,0.359640385 20.3973212,0.451861538 C20.7933066,0.505380769 21.191781,0.566861538 21.5821095,0.636967308 C22.0968905,0.729188462 22.6134818,0.830034615 23.1214745,0.975111538 C23.7131898,1.14407308 24.2929124,1.35660192 24.8923212,1.48840962 C25.1149781,1.53728462 25.3362774,1.32696731 25.5401533,1.21417885 C26.5188029,0.672794231 27.573708,0.502063462 28.6661752,0.640063462 C29.2925109,0.719236538 29.840781,1.01514038 30.2879051,1.49504423 C30.6067299,1.83716923 30.9142409,2.16292885 30.9337007,2.64836154 C30.9470511,2.98716923 30.652438,3.40338077 30.3376861,3.50090962 C30.1032628,3.57344808 30.0136569,3.46795769 30.0165985,3.23287115 C30.0258759,2.49465962 29.7016204,1.88759231 29.152219,1.41454423 C28.4448759,0.805486538 27.6443066,0.766563462 26.7376131,1.19162115 C26.4778467,1.31347692 26.2269051,1.45612115 25.984562,1.608275 C25.9243723,1.64587115 25.8141752,1.68899615 25.8343139,1.80510192 C25.854,1.92010192 25.9560511,1.90904423 26.0357007,1.94376538 C27.199219,2.45042885 28.2380584,3.11455385 28.9675766,4.16945769 C29.3282628,4.69093846 29.5391533,5.28053462 29.5549927,5.88981346 C29.5776204,6.75209231 29.2090146,7.50180385 28.6274818,8.15553462 C27.8538394,9.02489038 26.8389854,9.53708269 25.7775182,9.94599615 C25.2247226,10.1591885 24.6273504,10.2832558 24.033146,10.4020154 C22.7569416,10.6565635 21.468292,10.7087558 20.1771533,10.7709 C20.0115182,10.7788615 19.9282482,10.8372462 19.8268759,10.99515 C18.9428102,12.3729385 17.9399489,13.6600538 16.7635328,14.8202269 C16.1663869,15.4089385 15.5423139,15.9587269 14.8870146,16.4826404 C13.8567737,17.3064385 12.7093212,17.9519865 11.5270219,18.5203519 C10.7436496,18.8969769 9.90778102,19.1953135 9.03978102,19.375775 C8.88342336,19.4085058 8.74516788,19.4980731 8.56935036,19.502275 C8.37475182,19.5073615 8.48223358,19.6535442 8.525,19.7141404 C9.1499781,20.5987558 9.94375912,21.3230346 10.9004599,21.8352269 C12.0952044,22.475025 13.4112336,22.6687558 14.7569051,22.5250058 C15.4074526,22.4555635 16.0333358,22.2330827 16.6390803,21.9630538 C17.3826277,21.6319865 17.9908613,21.1403615 18.5565547,20.5812846 C18.5977372,20.5405923 18.6588321,20.4207269 18.7350876,20.4844192 C18.7923358,20.5321885 18.7742336,20.6186596 18.7081606,20.7104385 C18.2112555,21.4002173 17.537854,21.882775 16.785708,22.2582942 C15.9577591,22.6720731 15.0770876,22.8821692 14.1393942,22.9737269 C13.5230146,23.0338808 12.9174964,22.9843423 12.3459197,22.8901308 C11.3598029,22.7273615 10.422562,22.3646692 9.57040146,21.7963038 C8.77028467,21.2631019 8.07221898,20.6454192 7.49294891,19.8946019 C7.34564234,19.703525 7.13859854,19.7190058 6.97839416,19.7838038 C6.66070073,19.9118519 6.33983942,19.8815538 6.01762044,19.8868615 C5.6349854,19.8928327 5.25054015,19.9096404 4.86948905,19.8855346 C3.37130657,19.7904385 1.99078832,19.4031981 0.876824818,18.3423231 C0.561846715,18.0424385 0.239175182,17.7589192 0.0577007299,17.3557558 C-0.11540146,16.9713904 0.11970073,16.3687462 0.512744526,16.2037654 C0.770248175,16.0958423 0.865963504,16.27365 0.921175182,16.4538904 C1.34816058,17.8473808 2.28766423,18.7014769 3.70144526,19.1453327 C4.72874453,19.467775 5.7639635,19.3629481 6.80144526,19.3779865 C6.97183212,19.3806404 7.01143066,19.3266788 6.92635036,19.1594865 C6.67721898,18.6680827 6.41541606,18.1833135 6.18936496,17.679525 C6.03391241,17.3336404 5.94340146,16.9729385 5.82392701,16.6199769 C5.76079562,16.4335442 5.66983212,16.3384481 5.4849635,16.3220827 C4.90546715,16.2703327 4.37167883,16.0907558 3.85644526,15.8264769 C2.84272263,15.3067654 2.2460292,14.4723519 1.90480292,13.4349192 C1.67060584,12.7223615 1.58122628,11.9912269 1.62557664,11.2446115 C1.66245985,10.6238327 1.81745985,10.0284865 1.9790219,9.42739038 C2.18719708,8.65445769 2.50964234,7.92951538 2.87711679,7.23066923 C3.18666423,6.64195769 3.58740146,6.09460192 4.01732847,5.57356346 C4.68122628,4.76834231 5.43043066,4.05003462 6.26562044,3.41797692 C7.20942336,2.70342885 8.25980292,2.166025 9.33869343,1.67705385 C10.1815766,1.29534231 11.0606642,0.993909615 11.9583066,0.793986538 C12.5353139,0.665496154 13.1245401,0.546515385 13.7185182,0.462034615 C14.8284088,0.304130769 15.9349051,0.190457692 16.940708,0.228938462" id="Fill-3" fill="#FFFFFF" mask="url(#mask-2)"></path>
                    </g>
                    <path d="M67.1240274,15.5116784 C67.2389022,15.5962582 67.3575502,15.5845716 67.4627821,15.5532751 C68.3119749,15.3007242 69.0867506,14.9128853 69.7126922,14.3103287 C70.2011196,13.8400889 70.5868304,13.3007195 70.7736067,12.6436911 C70.8291574,12.4485831 70.9104921,12.2798197 70.7723489,12.1037274 C70.6247726,11.9157503 70.410745,12.0094418 70.2229206,12.0163745 C70.1585656,12.0187515 70.0952587,12.0714405 70.0327903,12.1037274 C69.6357597,12.3095316 69.3127269,12.606056 69.0070929,12.9101075 C68.2329461,13.680239 67.6520739,14.5789239 67.1240274,15.5116784 M79.7246139,17.7806746 C79.7246139,17.8200923 79.7246139,17.8597082 79.7246139,17.8989278 C79.7267102,18.3998699 79.9606522,18.535356 80.4444678,18.3034054 C80.8025081,18.1318689 81.1192521,17.9015029 81.3884112,17.6202305 C82.3048938,16.6615277 83.0404695,15.5845716 83.6018465,14.4123394 C83.870796,13.8509832 84.1722374,13.2797231 84.1330374,12.6254678 C84.1108171,12.2562483 83.872473,12.1150179 83.514223,12.2806121 C82.8604012,12.5830788 82.3610734,13.0654015 81.9114268,13.5843687 C81.2582338,14.3380597 80.7205445,15.1670208 80.2899738,16.0544152 C80.0222821,16.6060655 79.7441091,17.1559331 79.7246139,17.7806746 M87.1028013,11.792149 C86.4663784,12.8704916 85.8509181,13.90803 85.2411176,14.9483415 C84.7772165,15.7396675 84.3208618,16.5351532 83.8601051,17.3282619 C83.7580175,17.50376 83.6433523,17.6731177 83.5473439,17.8515869 C83.4750231,17.9856865 83.4268092,18.1605903 83.5395877,18.2661665 C83.6395791,18.3602541 83.8334826,18.3212325 83.9565328,18.2612145 C85.0109489,17.746605 85.8957779,17.0364914 86.6235975,16.1512759 C87.0344634,15.6521165 87.458955,15.1614746 87.7660563,14.5947703 C87.8146894,14.5048423 87.8448755,14.5529756 87.9025225,14.5834797 C88.0299748,14.6506286 88.0159299,14.7435277 87.9540903,14.8298902 C87.702959,15.1808863 87.4604224,15.5396076 87.1837168,15.8723805 C86.7535653,16.3901593 86.3454245,16.9362634 85.8421138,17.3843183 C85.1191156,18.0278773 84.3617388,18.6524208 83.3456842,18.8855599 C82.6830581,19.0376846 82.3508017,18.9245814 82.0569068,18.3935314 C81.9585925,18.2156563 82.0248341,18.0284716 82.0017753,17.8470311 C81.9923422,17.7729495 82.0334288,17.6655906 81.9349048,17.6402365 C81.8640514,17.6218152 81.7892151,17.6834178 81.7309392,17.744228 C81.4758251,18.0086637 81.2024735,18.2550741 80.8874064,18.4569167 C80.4427908,18.7421506 79.9744875,18.9752897 79.420657,18.9748935 C78.8695517,18.9746955 78.0413215,18.4993056 78.1033706,17.8093961 C78.1222369,17.5998284 78.0511739,17.3853087 78.1130134,17.1390964 C77.9752895,17.1694025 77.9023398,17.2214973 77.819957,17.2971635 C77.3074227,17.7664129 76.8204628,18.2645819 76.1991329,18.6151819 C75.8792445,18.7956319 75.5237197,18.9039812 75.1690334,18.9671685 C74.6613205,19.0578887 74.1705873,18.6238974 74.1301296,18.0738317 C74.0852698,17.4667192 74.3787454,16.927746 74.670544,16.4042229 C75.0696709,15.6881669 75.5692084,15.0242058 75.8947567,14.268534 C76.0924336,13.8093866 76.0056486,13.4577962 75.6249688,13.1163078 C75.4667015,12.9742851 75.291245,12.7916561 75.101534,12.7789791 C74.9046957,12.766302 74.8579492,13.0384627 74.7678103,13.1917759 C74.1881959,14.1793984 73.5664467,15.1438455 72.8398849,16.0387669 C72.3382511,16.6571699 71.7313854,17.1929739 71.0930759,17.6895582 C70.4468006,18.1924811 69.7162559,18.5781411 68.925339,18.8049417 C68.3777973,18.9620184 67.7950385,19.0984949 67.1896402,18.9043774 C66.8946971,18.8094975 66.5741798,18.7946416 66.2731576,18.6702479 C65.7669122,18.4608783 65.4470237,18.1102782 65.2189512,17.6550925 C64.8361751,16.8914975 65.0124701,16.1599914 65.3116057,15.4156101 C65.7354683,14.361235 66.471673,13.5302931 67.3562924,12.8128506 C67.8514278,12.4115423 68.4325095,12.1229411 69.0452448,11.892377 C69.7575521,11.6241779 70.495853,11.609322 71.2356212,11.6679534 C71.8338923,11.7152943 72.5824648,12.2903179 72.4631879,12.8843572 C72.396527,13.2157435 72.2145721,13.5102871 72.0118643,13.7915595 C71.5114883,14.4862229 70.7578848,14.8522731 69.9849957,15.1882153 C69.3051803,15.4835512 68.5775704,15.6394395 67.8549914,15.8125606 C67.6422215,15.8634669 67.4313383,15.8876326 67.2191974,15.9244753 C67.0307441,15.9571584 66.876879,16.0241091 66.793448,16.2404115 C66.5932557,16.7587845 66.4903296,17.2630939 66.705615,17.801671 C66.8462737,18.1526672 67.1565193,18.3257883 67.4833254,18.3788735 C68.1220542,18.4824689 68.750721,18.4155181 69.3886113,18.2196179 C70.4015215,17.9086337 71.174201,17.2856749 71.9009724,16.6155733 C72.6514316,15.9232868 73.2098738,15.077291 73.7286968,14.216043 C74.0104335,13.7487744 74.2772867,13.2733845 74.5453976,12.7991832 C74.6738981,12.5719864 74.6548221,12.3673707 74.4751731,12.1516626 C74.2563241,11.8888116 74.3049572,11.5613868 74.4217186,11.2870473 C74.6455986,10.7623357 75.0430485,10.3634044 75.5746587,10.0854994 C75.6715056,10.0349892 75.7618542,10.0132005 75.8651996,10.0040889 C76.1094132,9.98269634 76.1289084,10.0415258 76.04967,10.2691187 C75.8104873,10.9544724 75.5813667,11.6414108 75.2606397,12.2982411 C75.2325499,12.3558821 75.2371617,12.4198617 75.3176578,12.4747296 C75.6465602,12.6991532 75.9530326,12.9550714 76.2926259,13.1630545 C77.0877353,13.6495368 77.3749221,14.3354847 77.2158164,15.1945538 C77.1686507,15.4490854 77.026315,15.6826207 76.8900584,15.9102136 C76.4838043,16.5882384 76.0773405,17.2656689 75.6748596,17.9452783 C75.63545,18.0116348 75.6081987,18.0906684 75.600233,18.1659385 C75.5824148,18.3360884 75.6134394,18.4396838 75.840883,18.3368807 C76.502461,18.0373851 77.0302979,17.5782378 77.5797262,17.1309751 C78.1488593,16.6676681 78.4029254,16.0490671 78.7106556,15.4476989 C79.1137653,14.6601364 79.6805926,13.9836962 80.2872487,13.3304313 C80.8523989,12.7219323 81.4835812,12.1849398 82.2579377,11.8414707 C82.8390194,11.5835717 83.4657996,11.3944061 84.0896449,11.7735295 C84.3407762,11.9260505 84.4979953,12.1366085 84.509944,12.4351138 C84.5137173,12.5295975 84.4344788,12.673601 84.5872958,12.716188 C84.7147481,12.7516442 84.8027908,12.6302217 84.8560356,12.5511881 C85.0182857,12.3101258 85.2524374,12.1562184 85.5016821,12.0165726 C85.9857073,11.7456004 86.5162693,11.7531274 87.1028013,11.792149" id="Fill-6" fill="#FFFFFF"></path>
                    <g id="Group-10" transform="translate(92.000000, 11.000000)">
                        <mask id="mask-4" fill="white">
                            <use xlink:href="#path-3"></use>
                        </mask>
                        <g id="Clip-9"></g>
                        <path d="M5.76348889,0.153368421 C6.32393333,0.142 6.84437778,0.226842105 7.31815556,0.557789474 C7.78682222,0.885368421 8.11504444,1.49821053 7.92971111,2.04642105 C7.76926667,2.52073684 7.39571111,2.81968421 6.84637778,2.95989474 C6.53904444,3.03842105 6.28282222,2.98473684 6.03526667,2.89842105 C5.8586,2.83715789 5.74415556,2.63610526 5.63593333,2.46642105 C5.57126667,2.36536842 5.55682222,2.26515789 5.59237778,2.16915789 C5.75615556,1.72768421 6.24415556,1.33210526 6.72237778,1.30663158 C6.83482222,1.30052632 7.03237778,1.39484211 7.04393333,1.19905263 C7.0526,1.04768421 7.04926667,0.911473684 6.8626,0.758421053 C6.28504444,0.284947368 5.71748889,0.381157895 5.14015556,0.675473684 C4.72748889,0.886 4.61282222,1.43294737 4.71726667,1.86494737 C4.96571111,2.894 5.58748889,3.77526316 5.93504444,4.76094737 C6.34215556,5.91547368 5.87571111,6.99926316 4.54993333,7.57884211 C3.98015556,7.82789474 3.38615556,7.99610526 2.74904444,7.95631579 C1.93926667,7.90578947 1.18504444,7.61294737 0.723044444,7.01757895 C-0.261177778,5.74957895 0.000377777778,4.19673684 1.51593333,3.38115789 C1.74726667,3.25673684 2.03171111,3.16894737 2.33348889,3.19189474 C2.55015556,3.20810526 2.55237778,3.27 2.45882222,3.41589474 C2.05104444,4.05252632 1.58171111,4.64578947 1.08571111,5.22242105 C0.863711111,5.48052632 0.5426,5.71421053 0.658377778,6.11105263 C0.799933333,6.59547368 1.11615556,6.97147368 1.58171111,7.20452632 C2.32526667,7.57715789 3.06993333,7.50305263 3.74548889,7.06242105 C4.06082222,6.85694737 4.20993333,6.50157895 4.25304444,6.12936842 C4.31615556,5.58515789 4.14037778,5.08936842 3.92371111,4.59589474 C3.66993333,4.01821053 3.3606,3.44663158 3.22682222,2.842 C3.03171111,1.96094737 3.27015556,1.09105263 4.2046,0.503473684 C4.69682222,0.194 5.22037778,0.170210526 5.76348889,0.153368421" id="Fill-8" fill="#FFFFFF" mask="url(#mask-4)"></path>
                    </g>
                    <path d="M36.8035941,2.51939428 L36.7991457,2.51939428 C36.7991457,2.98779651 36.7989232,3.45619873 36.7993681,3.92460095 C36.7995905,4.37187381 36.8000354,4.37584864 37.2580048,4.37647625 C38.0218061,4.37794066 38.7856075,4.38547191 39.548964,4.36810818 C40.0543095,4.3566021 40.4840312,4.15702384 40.7707347,3.75744893 C41.2198072,3.13151795 41.3365794,2.44805656 41.0369753,1.73760818 C40.7834129,1.13678139 40.2951939,0.718587535 39.6170255,0.66168472 C38.7936147,0.592439014 37.9586379,0.650597039 37.1287769,0.641392172 C36.879218,0.63846335 36.7973663,0.735742061 36.800925,0.957914083 C36.8091547,1.47819828 36.8035941,1.99890088 36.8035941,2.51939428 Z M36.0097656,4.0011687 C36.0097656,2.78319741 36.0195523,1.56501692 36.0024257,0.347254824 C35.9986445,0.0665063739 36.0909501,-0.00420374238 36.3763191,0.000189489703 C37.350088,0.0152519997 38.3245241,0.0250844715 39.2980706,0.00249070651 C40.3263331,-0.0215674692 41.0587728,0.413571708 41.5883625,1.20749151 C42.3107931,2.29094622 42.0372126,3.60912504 41.1194944,4.44153792 C40.706232,4.81642706 40.1699696,5.03546106 39.5447379,5.01265809 C38.7600288,4.98378828 37.972873,5.01558691 37.1874966,4.9998968 C36.8987913,4.99424836 36.7935851,5.08169459 36.798256,5.35533019 C36.8109341,6.12561022 36.790916,6.89630865 36.8084874,7.66637947 C36.8144929,7.93206541 36.7224097,8.01198039 36.4483842,7.99859149 C36.19282,7.9860394 35.9812955,8.01867484 36.0013136,7.65487338 C36.0351219,7.04233131 36.0111002,6.42706962 36.0111002,5.81285393 C36.0111002,5.20888912 36.0111002,4.60513351 36.0111002,4.0011687 L36.0097656,4.0011687 Z" id="Fill-11" fill="#FFFFFF"></path>
                    <path d="M61.0071315,7.98136003 C60.1464812,7.98177739 59.2858308,7.98532493 58.4251805,7.97802117 C58.2973159,7.97697778 58.0986584,8.06357946 58.0531203,7.89997532 C57.9956508,7.69338336 57.9519024,7.4494379 58.1044252,7.24701951 C58.3931646,6.86388533 58.6846881,6.48283793 58.9772058,6.10262525 C59.5968422,5.2969166 60.2192626,4.49329474 60.8381036,3.68675137 C61.5195843,2.79882329 62.1994742,1.90943446 62.8759836,1.01712413 C62.9384245,0.934904706 63.0577383,0.863536574 63.0066322,0.729356138 C62.9495604,0.579316117 62.8161278,0.655692539 62.7210745,0.655275182 C61.2964675,0.648597462 59.8720594,0.643797851 58.4474524,0.652562358 C58.196098,0.654231788 58.0608757,0.596219096 58.049342,0.303651489 C58.0358198,-0.0458854155 58.2641069,0.0177616031 58.4516284,0.0173442456 C60.1631851,0.0148401006 61.8745429,0.0146314218 63.5860996,0.0188049968 C63.707402,0.0192223543 63.9024801,-0.0517284204 63.9362857,0.0793218341 C63.9836135,0.262124418 64.0345207,0.486662752 63.8965144,0.669674016 C63.4576384,1.2520964 63.013791,1.83034522 62.574915,2.41276761 C61.5981326,3.70908 60.6241341,5.00768785 59.6465563,6.30316553 C59.4785227,6.52603443 59.292592,6.73387847 59.1267458,6.9584168 C59.0660946,7.04042755 58.9439968,7.11471718 59.0064377,7.25014969 C59.0674866,7.38245202 59.1911752,7.34029891 59.2967679,7.34009023 C60.7510045,7.33988155 62.2050422,7.33862948 63.6592788,7.33925552 C63.9207749,7.3394642 64.0888085,7.67501963 63.9502056,7.91917376 C63.8917418,8.02226106 63.7897285,7.97843853 63.7077997,7.97864721 C62.807577,7.98219474 61.9073542,7.98094267 61.0071315,7.98136003" id="Fill-13" fill="#FFFFFF"></path>
                    <path d="M53.5014443,0.984405222 C53.3840186,1.2338738 53.2799602,1.42820546 53.1989344,1.63189999 C52.8096407,2.61188082 52.4448193,3.60247291 52.0304363,4.57121829 C51.8988209,4.87894475 52.007198,4.87207864 52.2358798,4.8706222 C52.9725148,4.86666898 53.7093555,4.87124639 54.4459905,4.87187058 C55.137794,4.87249477 55.1443748,4.85064807 54.8669542,4.19212591 C54.5436738,3.42499442 54.2518578,2.64433878 53.9193232,1.88157663 C53.7938773,1.59424043 53.7356786,1.26862047 53.5014443,0.984405222 M56.6482866,7.96390776 C56.2857272,7.95891423 56.1662451,7.82929044 56.0171495,7.30850657 C55.8524246,6.73320997 55.5606086,6.20826482 55.359895,5.64649237 C55.3158861,5.52331856 55.2138842,5.47192678 55.0711637,5.4729671 C54.0277003,5.47941708 52.9838255,5.4781687 51.9401564,5.47775257 C51.8077184,5.47754451 51.7338904,5.50792183 51.676103,5.65980846 C51.4196586,6.33268702 51.1366854,6.99495432 50.865023,7.66179902 C50.7619928,7.91480469 50.2889999,8.08853802 50.058056,7.95225618 C49.9597557,7.8939983 50.0095228,7.81306146 50.0395475,7.7402391 C50.6371638,6.2941952 51.2349857,4.84794323 51.8334245,3.40231546 C52.1889918,2.5434278 52.5521681,1.68745304 52.8972472,0.824404105 C52.9793012,0.619669256 53.0689642,0.417639238 53.1450544,0.212072134 C53.2040757,0.0522790812 53.2927104,0.0439565264 53.4331688,0.0152437122 C53.8241077,-0.064860878 53.9242588,0.182943192 54.0359262,0.472984228 C54.3337061,1.24531732 54.6469097,2.01182461 54.9580567,2.77916417 C55.345294,3.73417734 55.738495,4.68669374 56.1255266,5.64191497 C56.3881405,6.29024199 56.6419115,6.94231416 56.904114,7.59064118 C57.0581452,7.97119 57.0620525,7.96952549 56.6482866,7.96390776" id="Fill-15" fill="#FFFFFF"></path>
                    <path d="M68.4651946,4.87028198 L68.4651946,4.8746637 C68.9162813,4.8746637 69.3671617,4.87195121 69.8182484,4.87612427 C70.0025212,4.87779349 70.0704112,4.84691285 69.9946798,4.62907909 C69.9199802,4.41479244 69.8151531,4.21719802 69.7350883,4.00750174 C69.374384,3.06209489 69.0256482,2.11188903 68.6176892,1.18546961 C68.590657,1.12391697 68.6065461,1.02397218 68.5060524,1.02793658 C68.426813,1.03106638 68.3927649,1.09866996 68.3638755,1.17128121 C67.9028839,2.32867952 67.446432,3.48816437 66.9701703,4.63909444 C66.8863911,4.84148787 66.9398364,4.87049064 67.1121408,4.87049064 C67.5632275,4.87007333 68.0141079,4.87028198 68.4651946,4.87028198 M71.5976266,7.97336973 C71.2451764,8.09772693 71.1929692,7.75950038 71.0914437,7.51788018 C70.8312331,6.89964128 70.5819592,6.27618605 70.346511,5.64814045 C70.3011134,5.52670439 70.2544777,5.48393052 70.1374758,5.48413917 C69.0396802,5.48455648 67.9418845,5.48330456 66.8440888,5.48205264 C66.7279124,5.48205264 66.6713717,5.52691304 66.631133,5.65106159 C66.4088913,6.33794734 66.0574729,6.97454771 65.8566918,7.67082285 C65.7679602,7.9783774 65.5320992,7.98004662 65.2654917,7.9854716 C64.9873284,7.99131389 64.9526612,7.89804599 65.0475834,7.67082285 C65.4394469,6.73376212 65.8637078,5.80859462 66.2109992,4.85484166 C66.6096723,3.7598306 67.1172996,2.71176647 67.5182427,1.61759002 C67.7018965,1.11598816 67.9235191,0.623567026 68.1249192,0.125512263 C68.2047777,-0.0727081082 68.3898759,0.0255674652 68.5271004,0.0163867322 C68.6416261,0.00866657043 68.7747235,-0.0535120301 68.8580899,0.136153567 C69.2619219,1.0536009 69.5869272,2.00401542 69.9878702,2.92041949 C70.3456856,3.73813069 70.6420078,4.57962832 71.0010613,5.3960876 C71.3190506,6.11969628 71.6362145,6.8458088 71.902822,7.58965682 C72.0627453,8.03575698 72.0658406,7.96398034 71.5976266,7.97336973" id="Fill-17" fill="#FFFFFF"></path>
                    <path d="M43.0028786,3.99521169 C43.0028786,2.77711117 43.0059661,1.55901065 43.0000286,0.341119353 C42.9990786,0.127292708 43.0199787,-0.0166532142 43.3372802,0.00154924978 C43.6144441,0.0174502528 43.8552702,-0.000961434904 43.8543202,0.343420814 C43.8493327,2.57123502 43.8683328,4.79925846 43.8384077,7.02686345 C43.8341326,7.35618159 44.0747213,7.31329072 44.220072,7.31831209 C45.0613011,7.34823108 45.9039551,7.35408935 46.7461342,7.34885876 C47.4063874,7.34467428 48.0671156,7.38317145 48.7273688,7.32877328 C48.9708074,7.30847858 49.0031076,7.4691624 48.9997826,7.64156275 C48.9959826,7.83488547 49.0185452,8.00268289 48.6803435,7.99975376 C47.1795738,7.98573577 45.6785665,7.99431394 44.1777968,7.99473239 C43.8939829,7.99494161 43.6096941,7.9842712 43.3270677,7.99870764 C43.078404,8.01147029 43.0033536,7.93070993 43.0052536,7.71165269 C43.0157037,6.47304825 43.0102412,5.23402536 43.0102412,3.99521169 L43.0028786,3.99521169 Z" id="Fill-19" fill="#FFFFFF"></path>
                    <path d="M37.8927572,11.9908215 C37.3171779,12.0751173 36.8406021,11.4265143 37.0504507,10.8183643 C37.153725,10.5186961 37.3738622,10.3270531 37.6052587,10.181287 C37.9135285,9.98738405 38.2419873,9.90873812 38.5694755,10.1505518 C39.0481866,10.5040065 39.151655,10.9686503 38.7581645,11.4961205 C38.5327859,11.7978226 38.2579055,12.0520659 37.8927572,11.9908215" id="Fill-21" fill="#FFFFFF"></path>
                    <path d="M93.9930359,11.0081174 C94.0019586,11.1481501 93.8570187,11.173682 93.7708382,11.2212107 C93.0043539,11.643862 92.4459215,12.2495574 91.9627883,12.9122087 C91.8102314,13.1213739 91.7658354,13.3931905 91.6596331,13.6316193 C91.5725821,13.827233 91.4404822,14.0756781 91.1828111,13.9780677 C90.9157821,13.876922 90.9912989,13.6404573 91.0961954,13.4069385 C91.4200252,12.6877243 92.0724726,12.2261859 92.6683369,11.7261533 C92.9747565,11.4690666 93.3233959,11.2432074 93.6983682,11.059574 C93.8008708,11.0092958 93.8903157,10.9810143 94,11.0145986 L93.9930359,11.0081174 Z" id="Fill-23" fill="#FFFFFF"></path>
                </g>
            </g>
        </g>
    </g>
</svg>